<svg width="30" height="30" viewBox="0 0 30 30" fill="none" xmlns="http://www.w3.org/2000/svg">
<path d="M17.0375 15L22.0375 10.2625C22.1929 10.1172 22.3138 9.93888 22.3913 9.74073C22.4688 9.54257 22.5009 9.32959 22.4853 9.11739C22.4697 8.9052 22.4068 8.6992 22.3012 8.51449C22.1956 8.32979 22.05 8.17107 21.875 8.05L16.0375 4.0125C15.8186 3.85924 15.5619 3.76889 15.2952 3.75126C15.0286 3.73363 14.7622 3.78939 14.525 3.9125C14.2953 4.03176 14.102 4.21086 13.9656 4.43088C13.8292 4.6509 13.7547 4.90367 13.75 5.1625V12.9125L9.76253 7.9125C9.54704 7.65391 9.23766 7.49152 8.90243 7.46105C8.56721 7.43057 8.23362 7.53451 7.97503 7.75C7.71644 7.96549 7.55405 8.27487 7.52358 8.61009C7.4931 8.94532 7.59704 9.27891 7.81253 9.5375L12.15 15L7.77503 20.5375C7.57064 20.7965 7.47697 21.1259 7.51444 21.4537C7.5519 21.7815 7.71747 22.0813 7.97503 22.2875C8.20293 22.4417 8.47535 22.5164 8.75003 22.5C8.93779 22.4991 9.12293 22.456 9.29173 22.3738C9.46052 22.2915 9.60862 22.1723 9.72503 22.025L13.75 16.95V24.8125C13.7533 25.1949 13.9075 25.5605 14.1791 25.8297C14.4507 26.099 14.8176 26.25 15.2 26.25C15.4996 26.2511 15.7922 26.1594 16.0375 25.9875L21.8375 22.0125C22.0105 21.8903 22.1548 21.732 22.2605 21.5486C22.3663 21.3651 22.4309 21.1609 22.45 20.95C22.4665 20.7409 22.437 20.5307 22.3635 20.3342C22.2901 20.1377 22.1746 19.9596 22.025 19.8125L17.0375 15ZM16.25 7.2L19.375 9.3625L16.25 12.3125V7.2ZM16.25 22.8125V17.725L19.3375 20.7L16.25 22.8125Z" fill="white"/>
</svg>
