<svg width="26" height="26" viewBox="0 0 26 26" fill="none" xmlns="http://www.w3.org/2000/svg">
<path d="M9.75013 9.2417V7.9417C9.75013 6.0853 11.1996 4.5708 13.0001 4.5708C14.8006 4.5708 16.2501 6.0853 16.2501 7.9417V9.2417H18.4965C18.5994 9.24177 18.6985 9.28084 18.7738 9.35104C18.849 9.42123 18.8949 9.51734 18.9021 9.62L19.6743 20.995C19.6811 21.1025 19.6452 21.2083 19.5743 21.2893C19.5035 21.3704 19.4034 21.4202 19.296 21.4279H6.73153C6.62396 21.4279 6.52079 21.3852 6.44473 21.3091C6.36866 21.233 6.32593 21.1299 6.32593 21.0223V20.995L7.09813 9.62C7.10505 9.51711 7.15078 9.42068 7.22607 9.35021C7.30136 9.27975 7.4006 9.2405 7.50373 9.2404L9.75013 9.2417ZM10.9695 9.2417H15.032V7.9417C15.032 6.747 14.122 5.7889 13.0001 5.7889C11.8782 5.7889 10.9695 6.747 10.9695 7.9417V9.2417ZM7.60123 20.2111H18.399L17.7386 10.4611H8.26293L7.60123 20.2111Z" fill="#121213"/>
</svg>
