<svg width="26" height="26" viewBox="0 0 26 26" fill="none" xmlns="http://www.w3.org/2000/svg">
<path d="M9.75037 9.2417V7.9417C9.75037 6.0853 11.1999 4.5708 13.0004 4.5708C14.8009 4.5708 16.2504 6.0853 16.2504 7.9417V9.2417H18.4968C18.5997 9.24178 18.6988 9.28084 18.774 9.35104C18.8493 9.42123 18.8951 9.51734 18.9024 9.62L19.6746 20.995C19.6814 21.1025 19.6454 21.2083 19.5746 21.2893C19.5037 21.3704 19.4037 21.4202 19.2963 21.4279H6.73177C6.6242 21.4279 6.52103 21.3852 6.44497 21.3091C6.3689 21.233 6.32617 21.1299 6.32617 21.0223V20.995L7.09837 9.62C7.10529 9.51711 7.15102 9.42068 7.22631 9.35021C7.30161 9.27975 7.40085 9.2405 7.50397 9.2404L9.75037 9.2417ZM10.9698 9.2417H15.0323V7.9417C15.0323 6.747 14.1223 5.7889 13.0004 5.7889C11.8785 5.7889 10.9698 6.747 10.9698 7.9417V9.2417ZM7.60147 20.2111H18.3993L17.7389 10.4611H8.26317L7.60147 20.2111Z" fill="#F2F2F2"/>
</svg>
