<svg width="30" height="30" viewBox="0 0 30 30" fill="none" xmlns="http://www.w3.org/2000/svg">
<g clip-path="url(#clip0_69_97)">
<path d="M26.3205 20.0128C26.3153 20.0128 26.3088 20.0128 26.3036 20.0128C25.751 20.003 25.3113 19.5478 25.3206 18.9952L25.4205 13.2783C25.4533 11.4098 24.6377 9.5325 23.1236 7.99266C21.2421 6.07688 18.5885 4.93453 16.0253 4.93453H14.6969C10.2672 4.93453 5.05378 8.59453 4.97081 13.3139L4.87143 19.0233C4.86206 19.5755 4.39049 20.0063 3.85424 20.0063C3.30159 19.9964 2.8619 19.5408 2.87174 18.9886L2.97112 13.2788C3.07471 7.35703 9.24721 2.93391 14.6964 2.93391H16.0249C19.1135 2.93391 22.3 4.30125 24.55 6.59063C26.4433 8.51672 27.4614 10.9045 27.4192 13.3139L27.3203 19.0308C27.3105 19.5769 26.8647 20.0128 26.3205 20.0128Z" fill="white"/>
<path d="M7.38754 27.4275H5.10426C4.63176 27.4275 4.18832 27.2423 3.85785 26.9067C3.52739 26.5706 3.3502 26.1248 3.35817 25.6509L3.48567 18.3464C3.50301 17.3864 4.29754 16.605 5.25801 16.605H7.54129C8.01473 16.605 8.45723 16.7902 8.7877 17.1272C9.11817 17.4628 9.29536 17.9081 9.28739 18.3816L9.15989 25.6866C9.14301 26.6466 8.34801 27.4275 7.38754 27.4275ZM5.36254 25.4273H7.16395L7.28301 18.6047H5.48067L5.36254 25.4273Z" fill="white"/>
<path d="M4.36844 26.0372H3.96578C2.89 26.0372 1.885 25.6172 1.135 24.855C0.385001 24.0909 -0.0181242 23.077 0.000625825 21.998C0.0193758 20.9297 0.452501 19.9237 1.22125 19.1681C1.99 18.4134 3.00203 17.9972 4.07125 17.9972H4.47344C5.02609 17.9972 5.47375 18.4453 5.47375 18.9975C5.47375 19.5497 5.02609 19.9973 4.47344 19.9973H4.07172C3.52984 19.9973 3.01563 20.2092 2.62375 20.595C2.23141 20.9798 2.01016 21.4912 2.00078 22.0322C1.99094 22.5703 2.19063 23.0752 2.56141 23.4525C2.93219 23.8298 3.43047 24.0366 3.96578 24.0366H4.36844C4.92063 24.0366 5.36828 24.4842 5.36828 25.0369C5.36828 25.5895 4.92063 26.0372 4.36844 26.0372ZM24.7422 27.4275H22.4589C21.9859 27.4275 21.543 27.2423 21.2125 26.9067C20.882 26.5702 20.7048 26.1239 20.7138 25.6509L20.8413 18.3464C20.8581 17.3864 21.6527 16.605 22.6136 16.605H24.8964C25.3698 16.605 25.8123 16.7902 26.1428 17.1272C26.4733 17.4628 26.6505 17.9081 26.6425 18.3816L26.515 25.6866C26.4977 26.6466 25.7027 27.4275 24.7422 27.4275ZM22.7172 25.4273H24.5191L24.6386 18.6047H22.8363L22.7172 25.4273Z" fill="white"/>
<path d="M25.9287 26.0372H25.5261C24.9739 26.0372 24.5263 25.5895 24.5263 25.0369C24.5263 24.4842 24.9739 24.0366 25.5261 24.0366H25.9287C27.0514 24.0366 27.98 23.122 27.9997 21.9975C28.0095 21.4622 27.8098 20.9592 27.4386 20.5814C27.0678 20.2045 26.5695 19.9964 26.0342 19.9964H25.632C25.0798 19.9964 24.6322 19.5487 24.6322 18.9966C24.6322 18.4444 25.0803 17.9962 25.632 17.9962H26.0342C27.11 17.9962 28.1155 18.4167 28.8659 19.1798C29.6159 19.9434 30.0191 20.9564 29.9994 22.0322C29.9609 24.2409 28.1347 26.0372 25.9287 26.0372ZM18.7194 25.9687C18.4634 25.9687 18.208 25.8712 18.0125 25.6758C16.1703 23.8336 16.1703 20.8364 18.0125 18.9933C18.403 18.6023 19.0363 18.6023 19.4267 18.9933C19.8172 19.3833 19.8172 20.0166 19.4267 20.4075C18.3641 21.4706 18.3641 23.1994 19.4267 24.262C19.8172 24.653 19.8172 25.2862 19.4267 25.6762C19.2308 25.8712 18.9744 25.9687 18.7194 25.9687Z" fill="white"/>
<path d="M11.3767 25.9687C11.1212 25.9687 10.8653 25.8712 10.6698 25.6758C10.2793 25.2853 10.2793 24.6525 10.6698 24.2616C11.7329 23.1989 11.7329 21.4702 10.6698 20.407C10.2793 20.0161 10.2793 19.3828 10.6698 18.9928C11.0603 18.6019 11.694 18.6019 12.0845 18.9928C12.977 19.8853 13.4692 21.0722 13.4692 22.3336C13.4692 23.5959 12.977 24.7823 12.0845 25.6753C11.8881 25.8712 11.6321 25.9687 11.3767 25.9687Z" fill="white"/>
</g>
<defs>
<clipPath id="clip0_69_97">
<rect width="30" height="30" fill="white"/>
</clipPath>
</defs>
</svg>
