<svg width="122" height="34" viewBox="0 0 122 34" fill="none" xmlns="http://www.w3.org/2000/svg">
<path d="M40.538 23.144C39.77 23.144 39.386 22.748 39.386 21.956V11.48C39.386 10.7 39.776 10.31 40.556 10.31H44.894C46.286 10.31 47.36 10.658 48.116 11.354C48.872 12.05 49.25 13.022 49.25 14.27C49.25 15.518 48.872 16.496 48.116 17.204C47.36 17.9 46.286 18.248 44.894 18.248H41.69V21.956C41.69 22.748 41.306 23.144 40.538 23.144ZM41.69 16.43H44.534C46.19 16.43 47.018 15.71 47.018 14.27C47.018 12.842 46.19 12.128 44.534 12.128H41.69V16.43ZM51.8884 23.144C51.1204 23.144 50.7364 22.76 50.7364 21.992V15.188C50.7364 14.432 51.1024 14.054 51.8344 14.054C52.5664 14.054 52.9324 14.432 52.9324 15.188V15.746C53.3644 14.714 54.2884 14.138 55.7044 14.018C56.2204 13.958 56.5084 14.252 56.5684 14.9C56.6284 15.536 56.3164 15.89 55.6324 15.962L55.2364 15.998C53.7604 16.142 53.0224 16.898 53.0224 18.266V21.992C53.0224 22.76 52.6444 23.144 51.8884 23.144ZM61.6586 23.18C60.7466 23.18 59.9546 22.994 59.2826 22.622C58.6106 22.25 58.0886 21.722 57.7166 21.038C57.3446 20.342 57.1586 19.526 57.1586 18.59C57.1586 17.654 57.3446 16.844 57.7166 16.16C58.0886 15.476 58.6106 14.948 59.2826 14.576C59.9546 14.204 60.7466 14.018 61.6586 14.018C62.5706 14.018 63.3626 14.204 64.0346 14.576C64.7066 14.948 65.2286 15.476 65.6006 16.16C65.9726 16.844 66.1586 17.654 66.1586 18.59C66.1586 19.526 65.9726 20.342 65.6006 21.038C65.2286 21.722 64.7066 22.25 64.0346 22.622C63.3626 22.994 62.5706 23.18 61.6586 23.18ZM61.6586 21.47C62.3306 21.47 62.8706 21.23 63.2786 20.75C63.6866 20.258 63.8906 19.538 63.8906 18.59C63.8906 17.63 63.6866 16.916 63.2786 16.448C62.8706 15.968 62.3306 15.728 61.6586 15.728C60.9866 15.728 60.4466 15.968 60.0386 16.448C59.6306 16.916 59.4266 17.63 59.4266 18.59C59.4266 19.538 59.6306 20.258 60.0386 20.75C60.4466 21.23 60.9866 21.47 61.6586 21.47ZM72.6057 23.18C71.8017 23.18 71.0157 23.09 70.2477 22.91C69.4917 22.73 68.8317 22.46 68.2677 22.1C67.9917 21.92 67.8237 21.698 67.7637 21.434C67.7037 21.17 67.7217 20.924 67.8177 20.696C67.9257 20.456 68.0877 20.294 68.3037 20.21C68.5317 20.114 68.7897 20.156 69.0777 20.336C69.6057 20.648 70.1637 20.876 70.7517 21.02C71.3397 21.164 71.9577 21.236 72.6057 21.236C73.5537 21.236 74.2437 21.08 74.6757 20.768C75.1077 20.444 75.3237 20.03 75.3237 19.526C75.3237 19.106 75.1677 18.776 74.8557 18.536C74.5557 18.296 74.0337 18.098 73.2897 17.942L71.3097 17.528C69.0537 17.048 67.9257 15.89 67.9257 14.054C67.9257 13.262 68.1357 12.572 68.5557 11.984C68.9757 11.396 69.5577 10.94 70.3017 10.616C71.0457 10.292 71.9037 10.13 72.8757 10.13C73.5957 10.13 74.2797 10.22 74.9277 10.4C75.5757 10.58 76.1577 10.844 76.6737 11.192C76.9137 11.36 77.0577 11.57 77.1057 11.822C77.1537 12.062 77.1237 12.29 77.0157 12.506C76.9077 12.71 76.7337 12.854 76.4937 12.938C76.2657 13.01 75.9957 12.956 75.6837 12.776C75.2397 12.524 74.7897 12.344 74.3337 12.236C73.8777 12.128 73.3857 12.074 72.8577 12.074C72.0297 12.074 71.3817 12.248 70.9137 12.596C70.4457 12.944 70.2117 13.4 70.2117 13.964C70.2117 14.396 70.3557 14.744 70.6437 15.008C70.9317 15.26 71.4237 15.458 72.1197 15.602L74.0817 16.016C75.2697 16.268 76.1517 16.664 76.7277 17.204C77.3157 17.744 77.6097 18.464 77.6097 19.364C77.6097 20.12 77.4057 20.786 76.9977 21.362C76.5897 21.938 76.0077 22.388 75.2517 22.712C74.5077 23.024 73.6257 23.18 72.6057 23.18ZM83.3852 23.18C82.4732 23.18 81.6812 22.994 81.0092 22.622C80.3372 22.25 79.8152 21.722 79.4432 21.038C79.0712 20.342 78.8852 19.526 78.8852 18.59C78.8852 17.654 79.0712 16.844 79.4432 16.16C79.8152 15.476 80.3372 14.948 81.0092 14.576C81.6812 14.204 82.4732 14.018 83.3852 14.018C84.2972 14.018 85.0892 14.204 85.7612 14.576C86.4332 14.948 86.9552 15.476 87.3272 16.16C87.6992 16.844 87.8852 17.654 87.8852 18.59C87.8852 19.526 87.6992 20.342 87.3272 21.038C86.9552 21.722 86.4332 22.25 85.7612 22.622C85.0892 22.994 84.2972 23.18 83.3852 23.18ZM83.3852 21.47C84.0572 21.47 84.5972 21.23 85.0052 20.75C85.4132 20.258 85.6172 19.538 85.6172 18.59C85.6172 17.63 85.4132 16.916 85.0052 16.448C84.5972 15.968 84.0572 15.728 83.3852 15.728C82.7132 15.728 82.1732 15.968 81.7652 16.448C81.3572 16.916 81.1532 17.63 81.1532 18.59C81.1532 19.538 81.3572 20.258 81.7652 20.75C82.1732 21.23 82.7132 21.47 83.3852 21.47ZM92.9283 23.18C90.7683 23.18 89.6883 21.968 89.6883 19.544V15.188C89.6883 14.432 90.0603 14.054 90.8043 14.054C91.5603 14.054 91.9383 14.432 91.9383 15.188V19.58C91.9383 20.204 92.0643 20.666 92.3163 20.966C92.5683 21.266 92.9703 21.416 93.5223 21.416C94.1223 21.416 94.6143 21.212 94.9983 20.804C95.3823 20.384 95.5743 19.832 95.5743 19.148V15.188C95.5743 14.432 95.9463 14.054 96.6903 14.054C97.4463 14.054 97.8243 14.432 97.8243 15.188V21.992C97.8243 22.76 97.4583 23.144 96.7263 23.144C95.9943 23.144 95.6283 22.76 95.6283 21.992V21.686C95.0403 22.682 94.1403 23.18 92.9283 23.18ZM101.282 23.144C100.538 23.144 100.166 22.76 100.166 21.992V15.188C100.166 14.432 100.532 14.054 101.264 14.054C101.996 14.054 102.362 14.432 102.362 15.188V15.566C102.662 15.062 103.064 14.678 103.568 14.414C104.084 14.15 104.66 14.018 105.296 14.018C107.372 14.018 108.41 15.224 108.41 17.636V21.992C108.41 22.76 108.038 23.144 107.294 23.144C106.538 23.144 106.16 22.76 106.16 21.992V17.744C106.16 17.06 106.028 16.562 105.764 16.25C105.512 15.938 105.116 15.782 104.576 15.782C103.916 15.782 103.388 15.992 102.992 16.412C102.608 16.82 102.416 17.366 102.416 18.05V21.992C102.416 22.76 102.038 23.144 101.282 23.144ZM114.079 23.18C113.311 23.18 112.633 22.994 112.045 22.622C111.469 22.25 111.019 21.722 110.695 21.038C110.371 20.342 110.209 19.526 110.209 18.59C110.209 17.642 110.371 16.832 110.695 16.16C111.019 15.476 111.469 14.948 112.045 14.576C112.633 14.204 113.311 14.018 114.079 14.018C114.703 14.018 115.267 14.156 115.771 14.432C116.275 14.708 116.653 15.074 116.905 15.53V11.3C116.905 10.544 117.277 10.166 118.021 10.166C118.777 10.166 119.155 10.544 119.155 11.3V21.992C119.155 22.76 118.783 23.144 118.039 23.144C117.295 23.144 116.923 22.76 116.923 21.992V21.614C116.671 22.094 116.293 22.478 115.789 22.766C115.285 23.042 114.715 23.18 114.079 23.18ZM114.709 21.47C115.381 21.47 115.921 21.23 116.329 20.75C116.737 20.258 116.941 19.538 116.941 18.59C116.941 17.63 116.737 16.916 116.329 16.448C115.921 15.968 115.381 15.728 114.709 15.728C114.037 15.728 113.497 15.968 113.089 16.448C112.681 16.916 112.477 17.63 112.477 18.59C112.477 19.538 112.681 20.258 113.089 20.75C113.497 21.23 114.037 21.47 114.709 21.47Z" fill="#121213"/>
<path d="M30.6708 3.17332C30.5163 3.0408 30.3352 2.9431 30.1396 2.88688C29.944 2.83065 29.7386 2.81722 29.5374 2.84749L11.1208 5.68082C10.7854 5.73171 10.4794 5.90124 10.2584 6.15861C10.0374 6.41598 9.91614 6.7441 9.91659 7.08332V21.7458C9.25467 21.4225 8.52824 21.253 7.79159 21.25C6.81092 21.25 5.85228 21.5408 5.03689 22.0856C4.22149 22.6304 3.58597 23.4048 3.21068 24.3109C2.8354 25.2169 2.73721 26.2138 2.92853 27.1756C3.11985 28.1375 3.59208 29.021 4.28552 29.7144C4.97895 30.4078 5.86244 30.8801 6.82426 31.0714C7.78609 31.2627 8.78304 31.1645 9.68906 30.7892C10.5951 30.4139 11.3695 29.7784 11.9143 28.963C12.4591 28.1476 12.7499 27.189 12.7499 26.2083V15.385L28.3333 12.9908V18.9125C27.6713 18.5892 26.9449 18.4197 26.2083 18.4167C25.2276 18.4167 24.2689 18.7075 23.4536 19.2523C22.6382 19.7971 22.0026 20.5715 21.6274 21.4775C21.2521 22.3835 21.1539 23.3805 21.3452 24.3423C21.5365 25.3041 22.0087 26.1876 22.7022 26.8811C23.3956 27.5745 24.2791 28.0467 25.2409 28.2381C26.2028 28.4294 27.1997 28.3312 28.1057 27.9559C29.0117 27.5806 29.7861 26.9451 30.331 26.1297C30.8758 25.3143 31.1666 24.3557 31.1666 23.375V4.24999C31.1666 4.04536 31.1223 3.84317 31.0367 3.6573C30.9511 3.47144 30.8263 3.30633 30.6708 3.17332ZM7.79159 28.3333C7.3713 28.3333 6.96045 28.2087 6.611 27.9752C6.26155 27.7417 5.98918 27.4098 5.82834 27.0215C5.66751 26.6332 5.62543 26.206 5.70742 25.7938C5.78941 25.3815 5.9918 25.0029 6.28899 24.7057C6.58617 24.4085 6.96481 24.2061 7.37702 24.1242C7.78923 24.0422 8.2165 24.0842 8.60479 24.2451C8.99308 24.4059 9.32496 24.6783 9.55846 25.0277C9.79196 25.3772 9.91659 25.788 9.91659 26.2083C9.91659 26.7719 9.6927 27.3124 9.29419 27.7109C8.89567 28.1094 8.35517 28.3333 7.79159 28.3333ZM26.2083 25.5C25.788 25.5 25.3771 25.3754 25.0277 25.1419C24.6782 24.9084 24.4058 24.5765 24.245 24.1882C24.0842 23.7999 24.0421 23.3726 24.1241 22.9604C24.2061 22.5482 24.4085 22.1696 24.7057 21.8724C25.0028 21.5752 25.3815 21.3728 25.7937 21.2908C26.2059 21.2088 26.6332 21.2509 27.0215 21.4117C27.4097 21.5726 27.7416 21.8449 27.9751 22.1944C28.2086 22.5439 28.3333 22.9547 28.3333 23.375C28.3333 23.9386 28.1094 24.4791 27.7109 24.8776C27.3123 25.2761 26.7718 25.5 26.2083 25.5ZM28.3333 10.115L12.7499 12.5092V8.25916L28.3333 5.90749V10.115Z" fill="#D40D12"/>
</svg>
