<svg width="122" height="34" viewBox="0 0 122 34" fill="none" xmlns="http://www.w3.org/2000/svg">
<path d="M40.538 24.144C39.77 24.144 39.386 23.748 39.386 22.956V12.48C39.386 11.7 39.776 11.31 40.556 11.31H44.894C46.286 11.31 47.36 11.658 48.116 12.354C48.872 13.05 49.25 14.022 49.25 15.27C49.25 16.518 48.872 17.496 48.116 18.204C47.36 18.9 46.286 19.248 44.894 19.248H41.69V22.956C41.69 23.748 41.306 24.144 40.538 24.144ZM41.69 17.43H44.534C46.19 17.43 47.018 16.71 47.018 15.27C47.018 13.842 46.19 13.128 44.534 13.128H41.69V17.43ZM51.8884 24.144C51.1204 24.144 50.7364 23.76 50.7364 22.992V16.188C50.7364 15.432 51.1024 15.054 51.8344 15.054C52.5664 15.054 52.9324 15.432 52.9324 16.188V16.746C53.3644 15.714 54.2884 15.138 55.7044 15.018C56.2204 14.958 56.5084 15.252 56.5684 15.9C56.6284 16.536 56.3164 16.89 55.6324 16.962L55.2364 16.998C53.7604 17.142 53.0224 17.898 53.0224 19.266V22.992C53.0224 23.76 52.6444 24.144 51.8884 24.144ZM61.6586 24.18C60.7466 24.18 59.9546 23.994 59.2826 23.622C58.6106 23.25 58.0886 22.722 57.7166 22.038C57.3446 21.342 57.1586 20.526 57.1586 19.59C57.1586 18.654 57.3446 17.844 57.7166 17.16C58.0886 16.476 58.6106 15.948 59.2826 15.576C59.9546 15.204 60.7466 15.018 61.6586 15.018C62.5706 15.018 63.3626 15.204 64.0346 15.576C64.7066 15.948 65.2286 16.476 65.6006 17.16C65.9726 17.844 66.1586 18.654 66.1586 19.59C66.1586 20.526 65.9726 21.342 65.6006 22.038C65.2286 22.722 64.7066 23.25 64.0346 23.622C63.3626 23.994 62.5706 24.18 61.6586 24.18ZM61.6586 22.47C62.3306 22.47 62.8706 22.23 63.2786 21.75C63.6866 21.258 63.8906 20.538 63.8906 19.59C63.8906 18.63 63.6866 17.916 63.2786 17.448C62.8706 16.968 62.3306 16.728 61.6586 16.728C60.9866 16.728 60.4466 16.968 60.0386 17.448C59.6306 17.916 59.4266 18.63 59.4266 19.59C59.4266 20.538 59.6306 21.258 60.0386 21.75C60.4466 22.23 60.9866 22.47 61.6586 22.47ZM72.6057 24.18C71.8017 24.18 71.0157 24.09 70.2477 23.91C69.4917 23.73 68.8317 23.46 68.2677 23.1C67.9917 22.92 67.8237 22.698 67.7637 22.434C67.7037 22.17 67.7217 21.924 67.8177 21.696C67.9257 21.456 68.0877 21.294 68.3037 21.21C68.5317 21.114 68.7897 21.156 69.0777 21.336C69.6057 21.648 70.1637 21.876 70.7517 22.02C71.3397 22.164 71.9577 22.236 72.6057 22.236C73.5537 22.236 74.2437 22.08 74.6757 21.768C75.1077 21.444 75.3237 21.03 75.3237 20.526C75.3237 20.106 75.1677 19.776 74.8557 19.536C74.5557 19.296 74.0337 19.098 73.2897 18.942L71.3097 18.528C69.0537 18.048 67.9257 16.89 67.9257 15.054C67.9257 14.262 68.1357 13.572 68.5557 12.984C68.9757 12.396 69.5577 11.94 70.3017 11.616C71.0457 11.292 71.9037 11.13 72.8757 11.13C73.5957 11.13 74.2797 11.22 74.9277 11.4C75.5757 11.58 76.1577 11.844 76.6737 12.192C76.9137 12.36 77.0577 12.57 77.1057 12.822C77.1537 13.062 77.1237 13.29 77.0157 13.506C76.9077 13.71 76.7337 13.854 76.4937 13.938C76.2657 14.01 75.9957 13.956 75.6837 13.776C75.2397 13.524 74.7897 13.344 74.3337 13.236C73.8777 13.128 73.3857 13.074 72.8577 13.074C72.0297 13.074 71.3817 13.248 70.9137 13.596C70.4457 13.944 70.2117 14.4 70.2117 14.964C70.2117 15.396 70.3557 15.744 70.6437 16.008C70.9317 16.26 71.4237 16.458 72.1197 16.602L74.0817 17.016C75.2697 17.268 76.1517 17.664 76.7277 18.204C77.3157 18.744 77.6097 19.464 77.6097 20.364C77.6097 21.12 77.4057 21.786 76.9977 22.362C76.5897 22.938 76.0077 23.388 75.2517 23.712C74.5077 24.024 73.6257 24.18 72.6057 24.18ZM83.3852 24.18C82.4732 24.18 81.6812 23.994 81.0092 23.622C80.3372 23.25 79.8152 22.722 79.4432 22.038C79.0712 21.342 78.8852 20.526 78.8852 19.59C78.8852 18.654 79.0712 17.844 79.4432 17.16C79.8152 16.476 80.3372 15.948 81.0092 15.576C81.6812 15.204 82.4732 15.018 83.3852 15.018C84.2972 15.018 85.0892 15.204 85.7612 15.576C86.4332 15.948 86.9552 16.476 87.3272 17.16C87.6992 17.844 87.8852 18.654 87.8852 19.59C87.8852 20.526 87.6992 21.342 87.3272 22.038C86.9552 22.722 86.4332 23.25 85.7612 23.622C85.0892 23.994 84.2972 24.18 83.3852 24.18ZM83.3852 22.47C84.0572 22.47 84.5972 22.23 85.0052 21.75C85.4132 21.258 85.6172 20.538 85.6172 19.59C85.6172 18.63 85.4132 17.916 85.0052 17.448C84.5972 16.968 84.0572 16.728 83.3852 16.728C82.7132 16.728 82.1732 16.968 81.7652 17.448C81.3572 17.916 81.1532 18.63 81.1532 19.59C81.1532 20.538 81.3572 21.258 81.7652 21.75C82.1732 22.23 82.7132 22.47 83.3852 22.47ZM92.9283 24.18C90.7683 24.18 89.6883 22.968 89.6883 20.544V16.188C89.6883 15.432 90.0603 15.054 90.8043 15.054C91.5603 15.054 91.9383 15.432 91.9383 16.188V20.58C91.9383 21.204 92.0643 21.666 92.3163 21.966C92.5683 22.266 92.9703 22.416 93.5223 22.416C94.1223 22.416 94.6143 22.212 94.9983 21.804C95.3823 21.384 95.5743 20.832 95.5743 20.148V16.188C95.5743 15.432 95.9463 15.054 96.6903 15.054C97.4463 15.054 97.8243 15.432 97.8243 16.188V22.992C97.8243 23.76 97.4583 24.144 96.7263 24.144C95.9943 24.144 95.6283 23.76 95.6283 22.992V22.686C95.0403 23.682 94.1403 24.18 92.9283 24.18ZM101.282 24.144C100.538 24.144 100.166 23.76 100.166 22.992V16.188C100.166 15.432 100.532 15.054 101.264 15.054C101.996 15.054 102.362 15.432 102.362 16.188V16.566C102.662 16.062 103.064 15.678 103.568 15.414C104.084 15.15 104.66 15.018 105.296 15.018C107.372 15.018 108.41 16.224 108.41 18.636V22.992C108.41 23.76 108.038 24.144 107.294 24.144C106.538 24.144 106.16 23.76 106.16 22.992V18.744C106.16 18.06 106.028 17.562 105.764 17.25C105.512 16.938 105.116 16.782 104.576 16.782C103.916 16.782 103.388 16.992 102.992 17.412C102.608 17.82 102.416 18.366 102.416 19.05V22.992C102.416 23.76 102.038 24.144 101.282 24.144ZM114.079 24.18C113.311 24.18 112.633 23.994 112.045 23.622C111.469 23.25 111.019 22.722 110.695 22.038C110.371 21.342 110.209 20.526 110.209 19.59C110.209 18.642 110.371 17.832 110.695 17.16C111.019 16.476 111.469 15.948 112.045 15.576C112.633 15.204 113.311 15.018 114.079 15.018C114.703 15.018 115.267 15.156 115.771 15.432C116.275 15.708 116.653 16.074 116.905 16.53V12.3C116.905 11.544 117.277 11.166 118.021 11.166C118.777 11.166 119.155 11.544 119.155 12.3V22.992C119.155 23.76 118.783 24.144 118.039 24.144C117.295 24.144 116.923 23.76 116.923 22.992V22.614C116.671 23.094 116.293 23.478 115.789 23.766C115.285 24.042 114.715 24.18 114.079 24.18ZM114.709 22.47C115.381 22.47 115.921 22.23 116.329 21.75C116.737 21.258 116.941 20.538 116.941 19.59C116.941 18.63 116.737 17.916 116.329 17.448C115.921 16.968 115.381 16.728 114.709 16.728C114.037 16.728 113.497 16.968 113.089 17.448C112.681 17.916 112.477 18.63 112.477 19.59C112.477 20.538 112.681 21.258 113.089 21.75C113.497 22.23 114.037 22.47 114.709 22.47Z" fill="white"/>
<path d="M30.671 3.17332C30.5166 3.0408 30.3354 2.9431 30.1398 2.88688C29.9443 2.83065 29.7389 2.81722 29.5377 2.84749L11.121 5.68082C10.7856 5.73171 10.4796 5.90124 10.2587 6.15861C10.0377 6.41598 9.91639 6.7441 9.91683 7.08332V21.7458C9.25492 21.4225 8.52848 21.253 7.79183 21.25C6.81117 21.25 5.85252 21.5408 5.03713 22.0856C4.22174 22.6304 3.58621 23.4048 3.21093 24.3109C2.83564 25.2169 2.73745 26.2138 2.92877 27.1756C3.12009 28.1375 3.59233 29.021 4.28576 29.7144C4.9792 30.4078 5.86269 30.8801 6.82451 31.0714C7.78633 31.2627 8.78329 31.1645 9.6893 30.7892C10.5953 30.4139 11.3697 29.7784 11.9145 28.963C12.4594 28.1476 12.7502 27.189 12.7502 26.2083V15.385L28.3335 12.9908V18.9125C27.6716 18.5892 26.9451 18.4197 26.2085 18.4167C25.2278 18.4167 24.2692 18.7075 23.4538 19.2523C22.6384 19.7971 22.0029 20.5715 21.6276 21.4775C21.2523 22.3835 21.1541 23.3805 21.3454 24.3423C21.5368 25.3041 22.009 26.1876 22.7024 26.8811C23.3959 27.5745 24.2794 28.0467 25.2412 28.238C26.203 28.4294 27.2 28.3312 28.106 27.9559C29.012 27.5806 29.7864 26.9451 30.3312 26.1297C30.876 25.3143 31.1668 24.3557 31.1668 23.375V4.24999C31.1668 4.04536 31.1225 3.84317 31.0369 3.6573C30.9513 3.47144 30.8265 3.30633 30.671 3.17332V3.17332ZM7.79183 28.3333C7.37155 28.3333 6.9607 28.2087 6.61124 27.9752C6.26179 27.7417 5.98942 27.4098 5.82859 27.0215C5.66775 26.6332 5.62567 26.206 5.70766 25.7938C5.78966 25.3815 5.99204 25.0029 6.28923 24.7057C6.58642 24.4085 6.96506 24.2061 7.37726 24.1242C7.78947 24.0422 8.21674 24.0842 8.60503 24.2451C8.99333 24.4059 9.32521 24.6783 9.5587 25.0277C9.7922 25.3772 9.91683 25.788 9.91683 26.2083C9.91683 26.7719 9.69295 27.3124 9.29443 27.7109C8.89592 28.1094 8.35542 28.3333 7.79183 28.3333ZM26.2085 25.5C25.7882 25.5 25.3774 25.3754 25.0279 25.1419C24.6785 24.9084 24.4061 24.5765 24.2453 24.1882C24.0844 23.7999 24.0423 23.3726 24.1243 22.9604C24.2063 22.5482 24.4087 22.1696 24.7059 21.8724C25.0031 21.5752 25.3817 21.3728 25.7939 21.2908C26.2061 21.2088 26.6334 21.2509 27.0217 21.4117C27.41 21.5726 27.7419 21.8449 27.9754 22.1944C28.2089 22.5439 28.3335 22.9547 28.3335 23.375C28.3335 23.9386 28.1096 24.4791 27.7111 24.8776C27.3126 25.2761 26.7721 25.5 26.2085 25.5ZM28.3335 10.115L12.7502 12.5092V8.25916L28.3335 5.90749V10.115Z" fill="#D40D12"/>
</svg>
