<svg width="20" height="20" viewBox="0 0 20 20" fill="none" xmlns="http://www.w3.org/2000/svg">
<path d="M18.0334 10.8333C17.9132 10.7339 17.7674 10.6702 17.6127 10.6496C17.458 10.629 17.3006 10.6522 17.1584 10.7167C16.2773 11.1199 15.3192 11.3274 14.3501 11.325C12.5575 11.3228 10.8384 10.612 9.56773 9.34758C8.29703 8.08313 7.57778 6.36758 7.56678 4.57499C7.57058 4.01319 7.64051 3.45378 7.77511 2.90833C7.80368 2.76294 7.79296 2.61257 7.74408 2.47271C7.69519 2.33284 7.60989 2.20854 7.49698 2.1126C7.38407 2.01667 7.24762 1.95258 7.10169 1.92692C6.95577 1.90127 6.80564 1.91499 6.66678 1.96666C5.36038 2.55408 4.22476 3.46396 3.36658 4.61081C2.5084 5.75767 1.95585 7.10385 1.76082 8.5229C1.56579 9.94195 1.7347 11.3873 2.25167 12.7231C2.76864 14.059 3.61671 15.2415 4.7162 16.1596C5.81569 17.0776 7.13051 17.7011 8.53715 17.9715C9.94379 18.2419 11.3961 18.1502 12.7576 17.7052C14.1191 17.2601 15.3451 16.4763 16.3204 15.4273C17.2958 14.3783 17.9885 13.0986 18.3334 11.7083C18.3755 11.5492 18.3694 11.3811 18.316 11.2254C18.2626 11.0697 18.1643 10.9332 18.0334 10.8333ZM10.1168 16.4083C8.71825 16.3985 7.35695 15.9566 6.21927 15.1431C5.0816 14.3297 4.22317 13.1844 3.76152 11.8643C3.29986 10.5441 3.25756 9.11348 3.6404 7.76833C4.02323 6.42318 4.81249 5.22924 5.90011 4.34999V4.57499C5.90232 6.8154 6.79329 8.96341 8.3775 10.5476C9.9617 12.1318 12.1097 13.0228 14.3501 13.025C14.9383 13.0272 15.5251 12.9657 16.1001 12.8417C15.525 13.9296 14.6638 14.8399 13.6094 15.4743C12.555 16.1087 11.3473 16.4432 10.1168 16.4417V16.4083Z" fill="#121213"/>
</svg>
