<svg width="34" height="34" viewBox="0 0 34 34" fill="none" xmlns="http://www.w3.org/2000/svg">
<path d="M30.671 3.17332C30.5166 3.0408 30.3354 2.9431 30.1398 2.88688C29.9443 2.83065 29.7389 2.81722 29.5377 2.84749L11.121 5.68082C10.7856 5.73171 10.4796 5.90124 10.2587 6.15861C10.0377 6.41598 9.91639 6.7441 9.91683 7.08332V21.7458C9.25492 21.4225 8.52848 21.253 7.79183 21.25C6.81117 21.25 5.85252 21.5408 5.03713 22.0856C4.22174 22.6304 3.58621 23.4048 3.21093 24.3109C2.83564 25.2169 2.73745 26.2138 2.92877 27.1756C3.12009 28.1375 3.59233 29.021 4.28576 29.7144C4.9792 30.4078 5.86269 30.8801 6.82451 31.0714C7.78633 31.2627 8.78329 31.1645 9.6893 30.7892C10.5953 30.4139 11.3697 29.7784 11.9145 28.963C12.4594 28.1476 12.7502 27.189 12.7502 26.2083V15.385L28.3335 12.9908V18.9125C27.6716 18.5892 26.9451 18.4197 26.2085 18.4167C25.2278 18.4167 24.2692 18.7075 23.4538 19.2523C22.6384 19.7971 22.0029 20.5715 21.6276 21.4775C21.2523 22.3835 21.1541 23.3805 21.3454 24.3423C21.5368 25.3041 22.009 26.1876 22.7024 26.8811C23.3959 27.5745 24.2794 28.0467 25.2412 28.2381C26.203 28.4294 27.2 28.3312 28.106 27.9559C29.012 27.5806 29.7864 26.9451 30.3312 26.1297C30.876 25.3143 31.1668 24.3557 31.1668 23.375V4.24999C31.1668 4.04536 31.1225 3.84317 31.0369 3.6573C30.9513 3.47144 30.8265 3.30633 30.671 3.17332ZM7.79183 28.3333C7.37155 28.3333 6.9607 28.2087 6.61124 27.9752C6.26179 27.7417 5.98942 27.4098 5.82859 27.0215C5.66775 26.6332 5.62567 26.206 5.70766 25.7938C5.78966 25.3815 5.99204 25.0029 6.28923 24.7057C6.58642 24.4085 6.96505 24.2061 7.37726 24.1242C7.78947 24.0422 8.21674 24.0842 8.60503 24.2451C8.99333 24.4059 9.32521 24.6783 9.5587 25.0277C9.7922 25.3772 9.91683 25.788 9.91683 26.2083C9.91683 26.7719 9.69295 27.3124 9.29443 27.7109C8.89592 28.1094 8.35542 28.3333 7.79183 28.3333ZM26.2085 25.5C25.7882 25.5 25.3774 25.3754 25.0279 25.1419C24.6785 24.9084 24.4061 24.5765 24.2453 24.1882C24.0844 23.7999 24.0423 23.3726 24.1243 22.9604C24.2063 22.5482 24.4087 22.1696 24.7059 21.8724C25.0031 21.5752 25.3817 21.3728 25.7939 21.2908C26.2061 21.2088 26.6334 21.2509 27.0217 21.4117C27.41 21.5726 27.7419 21.8449 27.9754 22.1944C28.2089 22.5439 28.3335 22.9547 28.3335 23.375C28.3335 23.9386 28.1096 24.4791 27.7111 24.8776C27.3126 25.2761 26.7721 25.5 26.2085 25.5ZM28.3335 10.115L12.7502 12.5092V8.25916L28.3335 5.90749V10.115Z" fill="#D40D12"/>
</svg>
