<svg width="30" height="30" viewBox="0 0 30 30" fill="none" xmlns="http://www.w3.org/2000/svg">
<path d="M24.8627 11.9375C24.7588 11.7314 24.5999 11.558 24.4035 11.4367C24.2072 11.3153 23.981 11.2507 23.7502 11.25H17.5002V3.75C17.5136 3.47585 17.4364 3.20491 17.2805 2.979C17.1247 2.75309 16.8988 2.58476 16.6377 2.5C16.3867 2.41743 16.116 2.4165 15.8645 2.49735C15.613 2.5782 15.3935 2.73666 15.2377 2.95L5.23769 16.7C5.1124 16.8811 5.03717 17.092 5.01961 17.3116C5.00205 17.5311 5.04278 17.7513 5.13769 17.95C5.2251 18.1772 5.37693 18.3739 5.57456 18.516C5.77218 18.6581 6.007 18.7395 6.25019 18.75H12.5002V26.25C12.5004 26.5136 12.5839 26.7704 12.7388 26.9837C12.8937 27.1969 13.1121 27.3558 13.3627 27.4375C13.4883 27.4764 13.6187 27.4975 13.7502 27.5C13.9474 27.5005 14.142 27.4543 14.318 27.3653C14.4939 27.2762 14.6463 27.1467 14.7627 26.9875L24.7627 13.2375C24.8974 13.051 24.978 12.8309 24.9956 12.6016C25.0133 12.3722 24.9673 12.1424 24.8627 11.9375ZM15.0002 22.4V17.5C15.0002 17.1685 14.8685 16.8505 14.6341 16.6161C14.3997 16.3817 14.0817 16.25 13.7502 16.25H8.75019L15.0002 7.6V12.5C15.0002 12.8315 15.1319 13.1495 15.3663 13.3839C15.6007 13.6183 15.9187 13.75 16.2502 13.75H21.2502L15.0002 22.4Z" fill="white"/>
</svg>
