<svg width="28" height="28" viewBox="0 0 28 28" fill="none" xmlns="http://www.w3.org/2000/svg">
<path d="M1.75 21.4375C2.47461 21.4375 3.0625 20.85 3.0625 20.125V7.875C3.0625 7.14997 2.47461 6.5625 1.75 6.5625C1.0254 6.5625 0.4375 7.14997 0.4375 7.875V20.125C0.4375 20.85 1.0254 21.4375 1.75 21.4375ZM7.96216 24.858V3.14197C7.96216 2.41693 7.37426 1.82947 6.64966 1.82947C5.92505 1.82947 5.33716 2.41693 5.33716 3.14197V24.858C5.33716 25.5831 5.92505 26.1705 6.64966 26.1705C7.37426 26.1705 7.96216 25.5831 7.96216 24.858ZM12.8627 20.125V7.875C12.8627 7.14997 12.2748 6.5625 11.5502 6.5625C10.8256 6.5625 10.2377 7.14997 10.2377 7.875V20.125C10.2377 20.85 10.8256 21.4375 11.5502 21.4375C12.2748 21.4375 12.8627 20.85 12.8627 20.125ZM17.7623 24.858V3.14197C17.7623 2.41693 17.1744 1.82947 16.4498 1.82947C15.7252 1.82947 15.1373 2.41693 15.1373 3.14197V24.858C15.1373 25.5831 15.7252 26.1705 16.4498 26.1705C17.1744 26.1705 17.7623 25.5831 17.7623 24.858ZM22.6628 20.125V7.875C22.6628 7.14997 22.0749 6.5625 21.3503 6.5625C20.6257 6.5625 20.0378 7.14997 20.0378 7.875V20.125C20.0378 20.85 20.6257 21.4375 21.3503 21.4375C22.0749 21.4375 22.6628 20.85 22.6628 20.125ZM26.25 1.82947C25.5254 1.82947 24.9375 2.41693 24.9375 3.14197V24.858C24.9375 25.5831 25.5254 26.1705 26.25 26.1705C26.9746 26.1705 27.5625 25.5831 27.5625 24.858V3.14197C27.5625 2.41693 26.9746 1.82947 26.25 1.82947Z" fill="white"/>
</svg>
