<svg width="20" height="20" viewBox="0 0 20 20" fill="none" xmlns="http://www.w3.org/2000/svg">
<path d="M4.16675 9.99999C4.16675 9.77898 4.07895 9.56702 3.92267 9.41073C3.76639 9.25445 3.55443 9.16666 3.33341 9.16666H2.50008C2.27907 9.16666 2.06711 9.25445 1.91083 9.41073C1.75455 9.56702 1.66675 9.77898 1.66675 9.99999C1.66675 10.221 1.75455 10.433 1.91083 10.5892C2.06711 10.7455 2.27907 10.8333 2.50008 10.8333H3.33341C3.55443 10.8333 3.76639 10.7455 3.92267 10.5892C4.07895 10.433 4.16675 10.221 4.16675 9.99999ZM4.70008 14.1667L4.10841 14.7583C3.95321 14.9145 3.86609 15.1257 3.86609 15.3458C3.86609 15.566 3.95321 15.7772 4.10841 15.9333C4.26455 16.0885 4.47576 16.1757 4.69591 16.1757C4.91607 16.1757 5.12728 16.0885 5.28342 15.9333L5.87508 15.3417C6.0116 15.1822 6.08294 14.9772 6.07484 14.7674C6.06674 14.5577 5.9798 14.3588 5.83138 14.2104C5.68297 14.0619 5.48402 13.975 5.27429 13.9669C5.06456 13.9588 4.8595 14.0301 4.70008 14.1667ZM10.0001 4.16666C10.2211 4.16666 10.4331 4.07886 10.5893 3.92258C10.7456 3.7663 10.8334 3.55434 10.8334 3.33332V2.49999C10.8334 2.27898 10.7456 2.06701 10.5893 1.91073C10.4331 1.75445 10.2211 1.66666 10.0001 1.66666C9.77907 1.66666 9.56711 1.75445 9.41083 1.91073C9.25455 2.06701 9.16675 2.27898 9.16675 2.49999V3.33332C9.16675 3.55434 9.25455 3.7663 9.41083 3.92258C9.56711 4.07886 9.77907 4.16666 10.0001 4.16666ZM14.7167 6.11666C14.9354 6.11574 15.1449 6.02894 15.3001 5.87499L15.8917 5.28332C15.979 5.20862 16.0498 5.11669 16.0999 5.0133C16.1499 4.90991 16.178 4.7973 16.1824 4.68253C16.1868 4.56777 16.1675 4.45333 16.1256 4.34639C16.0837 4.23945 16.0202 4.14233 15.939 4.06111C15.8577 3.9799 15.7606 3.91635 15.6537 3.87446C15.5467 3.83256 15.4323 3.81323 15.3175 3.81766C15.2028 3.82209 15.0902 3.8502 14.9868 3.90022C14.8834 3.95024 14.7915 4.02109 14.7167 4.10832L14.1667 4.69999C14.0115 4.85613 13.9244 5.06734 13.9244 5.28749C13.9244 5.50764 14.0115 5.71885 14.1667 5.87499C14.3137 6.02113 14.5097 6.10728 14.7167 6.11666ZM4.71675 5.87499C4.87197 6.02894 5.08147 6.11574 5.30008 6.11666C5.40975 6.11729 5.51847 6.09627 5.62 6.0548C5.72153 6.01333 5.81388 5.95222 5.89175 5.87499C6.04696 5.71885 6.13408 5.50764 6.13408 5.28749C6.13408 5.06734 6.04696 4.85613 5.89175 4.69999L5.30008 4.10832C5.22293 4.03008 5.13112 3.96779 5.0299 3.92503C4.92868 3.88226 4.82002 3.85985 4.71014 3.85908C4.60026 3.85831 4.4913 3.87918 4.38948 3.92052C4.28767 3.96185 4.19499 4.02284 4.11675 4.09999C4.0385 4.17714 3.97622 4.26895 3.93345 4.37017C3.89069 4.47139 3.86828 4.58005 3.86751 4.68993C3.86594 4.91185 3.9526 5.1253 4.10841 5.28332L4.71675 5.87499ZM17.5001 9.16666H16.6667C16.4457 9.16666 16.2338 9.25445 16.0775 9.41073C15.9212 9.56702 15.8334 9.77898 15.8334 9.99999C15.8334 10.221 15.9212 10.433 16.0775 10.5892C16.2338 10.7455 16.4457 10.8333 16.6667 10.8333H17.5001C17.7211 10.8333 17.9331 10.7455 18.0893 10.5892C18.2456 10.433 18.3334 10.221 18.3334 9.99999C18.3334 9.77898 18.2456 9.56702 18.0893 9.41073C17.9331 9.25445 17.7211 9.16666 17.5001 9.16666ZM15.3001 14.1667C15.1418 14.0786 14.9591 14.0445 14.7796 14.0696C14.6002 14.0947 14.4339 14.1776 14.3057 14.3057C14.1776 14.4338 14.0948 14.6001 14.0697 14.7795C14.0446 14.959 14.0787 15.1417 14.1667 15.3L14.7584 15.8917C14.9145 16.0469 15.1258 16.134 15.3459 16.134C15.5661 16.134 15.7773 16.0469 15.9334 15.8917C16.0886 15.7355 16.1757 15.5243 16.1757 15.3042C16.1757 15.084 16.0886 14.8728 15.9334 14.7167L15.3001 14.1667ZM10.0001 5.41666C9.09358 5.41666 8.20744 5.68546 7.45372 6.18909C6.69999 6.69271 6.11254 7.40853 5.76563 8.24602C5.41873 9.08352 5.32797 10.0051 5.50482 10.8942C5.68166 11.7832 6.11818 12.5999 6.75918 13.2409C7.40017 13.8819 8.21684 14.3184 9.10592 14.4953C9.995 14.6721 10.9166 14.5813 11.754 14.2344C12.5915 13.8875 13.3074 13.3001 13.811 12.5464C14.3146 11.7926 14.5834 10.9065 14.5834 9.99999C14.5812 8.78509 14.0976 7.62058 13.2386 6.76152C12.3795 5.90245 11.215 5.41886 10.0001 5.41666ZM10.0001 12.9167C9.42322 12.9167 8.85931 12.7456 8.37967 12.4251C7.90002 12.1046 7.52619 11.6491 7.30543 11.1161C7.08468 10.5832 7.02692 9.99675 7.13946 9.43098C7.252 8.8652 7.52978 8.3455 7.93769 7.9376C8.34559 7.52969 8.86529 7.25191 9.43107 7.13937C9.99685 7.02683 10.5833 7.08459 11.1162 7.30534C11.6492 7.5261 12.1047 7.89993 12.4252 8.37958C12.7457 8.85922 12.9167 9.42313 12.9167 9.99999C12.9167 10.7735 12.6095 11.5154 12.0625 12.0624C11.5155 12.6094 10.7736 12.9167 10.0001 12.9167ZM10.0001 15.8333C9.77907 15.8333 9.56711 15.9211 9.41083 16.0774C9.25455 16.2337 9.16675 16.4456 9.16675 16.6667V17.5C9.16675 17.721 9.25455 17.933 9.41083 18.0892C9.56711 18.2455 9.77907 18.3333 10.0001 18.3333C10.2211 18.3333 10.4331 18.2455 10.5893 18.0892C10.7456 17.933 10.8334 17.721 10.8334 17.5V16.6667C10.8334 16.4456 10.7456 16.2337 10.5893 16.0774C10.4331 15.9211 10.2211 15.8333 10.0001 15.8333Z" fill="#121213"/>
</svg>
