<svg width="20" height="20" viewBox="0 0 20 20" fill="none" xmlns="http://www.w3.org/2000/svg">
<path d="M4.1665 9.99999C4.1665 9.77898 4.07871 9.56702 3.92243 9.41073C3.76615 9.25445 3.55418 9.16666 3.33317 9.16666H2.49984C2.27882 9.16666 2.06686 9.25445 1.91058 9.41073C1.7543 9.56702 1.6665 9.77898 1.6665 9.99999C1.6665 10.221 1.7543 10.433 1.91058 10.5892C2.06686 10.7455 2.27882 10.8333 2.49984 10.8333H3.33317C3.55418 10.8333 3.76615 10.7455 3.92243 10.5892C4.07871 10.433 4.1665 10.221 4.1665 9.99999ZM4.69984 14.1667L4.10817 14.7583C3.95296 14.9145 3.86584 15.1257 3.86584 15.3458C3.86584 15.566 3.95296 15.7772 4.10817 15.9333C4.26431 16.0885 4.47552 16.1757 4.69567 16.1757C4.91583 16.1757 5.12704 16.0885 5.28317 15.9333L5.87484 15.3417C6.01136 15.1822 6.0827 14.9772 6.0746 14.7674C6.0665 14.5577 5.97955 14.3588 5.83114 14.2104C5.68273 14.0619 5.48378 13.975 5.27405 13.9669C5.06432 13.9588 4.85926 14.0301 4.69984 14.1667ZM9.99984 4.16666C10.2209 4.16666 10.4328 4.07886 10.5891 3.92258C10.7454 3.7663 10.8332 3.55434 10.8332 3.33332V2.49999C10.8332 2.27898 10.7454 2.06701 10.5891 1.91073C10.4328 1.75445 10.2209 1.66666 9.99984 1.66666C9.77882 1.66666 9.56686 1.75445 9.41058 1.91073C9.2543 2.06701 9.1665 2.27898 9.1665 2.49999V3.33332C9.1665 3.55434 9.2543 3.7663 9.41058 3.92258C9.56686 4.07886 9.77882 4.16666 9.99984 4.16666ZM14.7165 6.11666C14.9351 6.11574 15.1446 6.02894 15.2998 5.87499L15.8915 5.28332C15.9787 5.20862 16.0496 5.11669 16.0996 5.0133C16.1496 4.90991 16.1777 4.7973 16.1822 4.68253C16.1866 4.56777 16.1673 4.45333 16.1254 4.34639C16.0835 4.23945 16.0199 4.14233 15.9387 4.06111C15.8575 3.9799 15.7604 3.91635 15.6534 3.87446C15.5465 3.83256 15.4321 3.81323 15.3173 3.81766C15.2025 3.82209 15.0899 3.8502 14.9865 3.90022C14.8831 3.95024 14.7912 4.02109 14.7165 4.10832L14.1665 4.69999C14.0113 4.85613 13.9242 5.06734 13.9242 5.28749C13.9242 5.50764 14.0113 5.71885 14.1665 5.87499C14.3134 6.02113 14.5095 6.10728 14.7165 6.11666ZM4.7165 5.87499C4.87172 6.02894 5.08122 6.11574 5.29984 6.11666C5.40951 6.11729 5.51823 6.09627 5.61976 6.0548C5.72129 6.01333 5.81364 5.95222 5.8915 5.87499C6.04671 5.71885 6.13383 5.50764 6.13383 5.28749C6.13383 5.06734 6.04671 4.85613 5.8915 4.69999L5.29984 4.10832C5.22269 4.03008 5.13088 3.96779 5.02966 3.92503C4.92843 3.88226 4.81978 3.85985 4.7099 3.85908C4.60001 3.85831 4.49105 3.87918 4.38924 3.92052C4.28743 3.96185 4.19475 4.02284 4.1165 4.09999C4.03826 4.17714 3.97597 4.26895 3.93321 4.37017C3.89044 4.47139 3.86803 4.58005 3.86726 4.68993C3.8657 4.91185 3.95236 5.1253 4.10817 5.28332L4.7165 5.87499ZM17.4998 9.16666H16.6665C16.4455 9.16666 16.2335 9.25445 16.0772 9.41073C15.921 9.56702 15.8332 9.77898 15.8332 9.99999C15.8332 10.221 15.921 10.433 16.0772 10.5892C16.2335 10.7455 16.4455 10.8333 16.6665 10.8333H17.4998C17.7209 10.8333 17.9328 10.7455 18.0891 10.5892C18.2454 10.433 18.3332 10.221 18.3332 9.99999C18.3332 9.77898 18.2454 9.56702 18.0891 9.41073C17.9328 9.25445 17.7209 9.16666 17.4998 9.16666ZM15.2998 14.1667C15.1415 14.0786 14.9588 14.0445 14.7794 14.0696C14.6 14.0947 14.4336 14.1776 14.3055 14.3057C14.1774 14.4338 14.0945 14.6001 14.0695 14.7795C14.0444 14.959 14.0784 15.1417 14.1665 15.3L14.7582 15.8917C14.9143 16.0469 15.1255 16.134 15.3457 16.134C15.5658 16.134 15.777 16.0469 15.9332 15.8917C16.0884 15.7355 16.1755 15.5243 16.1755 15.3042C16.1755 15.084 16.0884 14.8728 15.9332 14.7167L15.2998 14.1667ZM9.99984 5.41666C9.09334 5.41666 8.2072 5.68546 7.45347 6.18909C6.69975 6.69271 6.11229 7.40853 5.76539 8.24602C5.41849 9.08352 5.32772 10.0051 5.50457 10.8942C5.68142 11.7832 6.11794 12.5999 6.75893 13.2409C7.39992 13.8819 8.21659 14.3184 9.10567 14.4953C9.99475 14.6721 10.9163 14.5813 11.7538 14.2344C12.5913 13.8875 13.3071 13.3001 13.8107 12.5464C14.3144 11.7926 14.5832 10.9065 14.5832 9.99999C14.581 8.78509 14.0974 7.62058 13.2383 6.76152C12.3792 5.90245 11.2147 5.41886 9.99984 5.41666ZM9.99984 12.9167C9.42298 12.9167 8.85907 12.7456 8.37942 12.4251C7.89978 12.1046 7.52594 11.6491 7.30519 11.1161C7.08443 10.5832 7.02667 9.99675 7.13921 9.43098C7.25175 8.8652 7.52954 8.3455 7.93744 7.9376C8.34535 7.52969 8.86505 7.25191 9.43082 7.13937C9.9966 7.02683 10.583 7.08459 11.116 7.30534C11.6489 7.5261 12.1045 7.89993 12.425 8.37958C12.7454 8.85922 12.9165 9.42313 12.9165 9.99999C12.9165 10.7735 12.6092 11.5154 12.0622 12.0624C11.5153 12.6094 10.7734 12.9167 9.99984 12.9167ZM9.99984 15.8333C9.77882 15.8333 9.56686 15.9211 9.41058 16.0774C9.2543 16.2337 9.1665 16.4456 9.1665 16.6667V17.5C9.1665 17.721 9.2543 17.933 9.41058 18.0892C9.56686 18.2455 9.77882 18.3333 9.99984 18.3333C10.2209 18.3333 10.4328 18.2455 10.5891 18.0892C10.7454 17.933 10.8332 17.721 10.8332 17.5V16.6667C10.8332 16.4456 10.7454 16.2337 10.5891 16.0774C10.4328 15.9211 10.2209 15.8333 9.99984 15.8333Z" fill="#F2F2F2"/>
</svg>
